<?xml version="1.0" encoding="utf-8"?>
<!-- Generator: Adobe Illustrator 22.1.0, SVG Export Plug-In . SVG Version: 6.00 Build 0)  -->
<svg version="1.1" id="Layer_1" xmlns="http://www.w3.org/2000/svg" xmlns:xlink="http://www.w3.org/1999/xlink" x="0px" y="0px"
	 viewBox="0 0 784 1224" style="enable-background:new 0 0 784 1224;" xml:space="preserve">
<style type="text/css">
	.st0{fill:#FFFFFF;}
</style>
<path class="st0" d="M728,878V542c-9.3,10.5-19.4,20.1-30.2,28.9C619.6,631,557.5,680.3,511.4,718.8c-14.9,12.5-27,22.3-36.3,29.3
	s-21.9,14.1-37.8,21.2c-15.9,7.1-30.8,10.7-44.8,10.7h-0.9c-14,0-28.9-3.6-44.8-10.7s-28.5-14.2-37.8-21.2
	c-9.3-7-21.4-16.8-36.3-29.3C226.5,680.3,164.3,631,86.2,570.9C75.4,562.2,65.3,552.5,56,542v336c0,3.8,1.4,7.1,4.2,9.8
	c2.8,2.8,6.1,4.2,9.8,4.2h644c3.8,0,7.1-1.4,9.8-4.2C726.6,885.1,728,881.8,728,878L728,878z M728,418.2v-10.7c0,0-0.1-1.9-0.2-5.7
	c-0.1-3.8-0.6-5.6-1.3-5.5s-1.5-1.2-2.4-3.9s-2.2-3.9-3.9-3.3s-3.8,0.2-6.1-1.1H70c-3.8,0-7.1,1.4-9.8,4.2c-2.8,2.8-4.2,6.1-4.2,9.8
	c0,49,21.4,90.4,64.3,124.2c56.3,44.3,114.8,90.6,175.4,138.7c1.8,1.5,6.9,5.8,15.3,12.9s15.2,12.6,20.1,16.4s11.4,8.4,19.5,13.8
	c8,5.4,15.4,9.4,22.1,12c6.7,2.6,13,3.9,18.8,3.9h0.9c5.8,0,12.1-1.3,18.8-3.9s14.1-6.6,22.1-12c8-5.4,14.5-10,19.5-13.8
	s11.7-9.3,20.1-16.4s13.6-11.4,15.3-12.9c60.7-48.1,119.1-94.3,175.4-138.7c15.7-12.5,30.4-29.4,44-50.5
	C721.2,454.6,728,435.4,728,418.2L728,418.2z M784,402v476c0,19.2-6.9,35.7-20.6,49.4C749.7,941.2,733.2,948,714,948H70
	c-19.2,0-35.7-6.9-49.4-20.6C6.9,913.7,0,897.3,0,878V402c0-19.2,6.9-35.7,20.6-49.4S50.7,332,70,332h644c19.2,0,35.7,6.9,49.4,20.6
	S784,382.8,784,402z"/>
</svg>
