<?xml version="1.0" encoding="UTF-8"?>
<svg width="374px" height="90px" viewBox="0 0 374 90" version="1.1" xmlns="http://www.w3.org/2000/svg" xmlns:xlink="http://www.w3.org/1999/xlink">
    <!-- Generator: Sketch 49.3 (51167) - http://www.bohemiancoding.com/sketch -->
    <title>logo</title>
    <desc>Created with Sketch.</desc>
    <defs></defs>
    <g id="Welcome" stroke="none" stroke-width="1" fill="none" fill-rule="evenodd">
        <g id="Mango-Brand-Copy-4" transform="translate(-198.000000, -237.000000)" fill="#FEFEFE">
            <path d="M224.7301,268.1849 C221.9581,268.1849 219.8441,269.0109 218.3931,270.6609 C216.9411,272.3109 216.0831,274.1599 215.8201,276.2049 L233.6391,276.2049 C233.3761,274.1599 232.5161,272.3109 231.0661,270.6609 C229.6131,269.0109 227.5011,268.1849 224.7301,268.1849 Z M215.8201,287.1929 C215.8201,288.7119 216.0991,289.9649 216.6611,290.9559 C217.2211,291.9449 217.9311,292.7369 218.7901,293.3309 C219.6471,293.9249 220.6041,294.3379 221.6611,294.5689 C222.7151,294.8009 223.7401,294.9149 224.7301,294.9149 C226.7091,294.9149 228.2771,294.7169 229.4321,294.3209 C230.5861,293.9249 231.5601,293.3659 232.3531,292.6379 C233.0781,292.0439 233.6061,291.6649 233.9371,291.4989 C234.2661,291.3349 234.8281,291.2519 235.6201,291.2519 L248.4901,291.2519 C249.9411,291.2519 250.6681,291.9789 250.6681,293.4299 C250.6681,294.2219 250.1721,295.4269 249.1821,297.0429 C248.1931,298.6619 246.6581,300.3109 244.5791,301.9939 C242.5011,303.6769 239.8101,305.1459 236.5101,306.3989 C233.2101,307.6519 229.2841,308.2809 224.7301,308.2809 C220.4391,308.2809 216.6271,307.6689 213.2951,306.4489 C209.9611,305.2279 207.1571,303.4629 204.8801,301.1519 C202.6031,298.8429 200.8861,296.0389 199.7321,292.7369 C198.5771,289.4379 198.0001,285.7079 198.0001,281.5499 C198.0001,277.7229 198.5771,274.1739 199.7321,270.9079 C200.8861,267.6409 202.6031,264.8189 204.8801,262.4429 C207.1571,260.0669 209.9611,258.2039 213.2951,256.8499 C216.6271,255.4969 220.4391,254.8199 224.7301,254.8199 C229.5461,254.8199 233.6551,255.6289 237.0551,257.2459 C240.4541,258.8639 243.2251,260.9579 245.3711,263.5329 C247.5151,266.1059 249.0671,268.9949 250.0241,272.1949 C250.9801,275.3969 251.4601,278.5809 251.4601,281.7479 L251.4601,284.5199 C251.4601,285.2469 251.1951,285.8729 250.6681,286.4009 C250.1381,286.9299 249.5121,287.1929 248.7871,287.1929 L215.8201,287.1929 Z M341.6481,304.6175 C341.6481,305.3445 341.3831,305.9715 340.8561,306.4985 C340.3271,307.0265 339.7011,307.2905 338.9751,307.2905 L326.9961,307.2905 C326.2691,307.2905 325.6421,307.0265 325.1151,306.4985 C324.5861,305.9715 324.3231,305.3445 324.3231,304.6175 L324.3231,279.2725 C324.3231,275.9735 323.7111,273.6305 322.4921,272.2445 C321.2691,270.8575 319.4721,270.1655 317.0961,270.1655 C314.7851,270.1655 313.0201,270.8575 311.7991,272.2445 C310.5781,273.6305 309.9681,275.9735 309.9681,279.2725 L309.9681,304.6175 C309.9681,305.3445 309.7041,305.9715 309.1761,306.4985 C308.6471,307.0265 308.0201,307.2905 307.2941,307.2905 L295.3161,307.2905 C294.5881,307.2905 293.9621,307.0265 293.4351,306.4985 C292.9061,305.9715 292.6431,305.3445 292.6431,304.6175 L292.6431,279.2725 C292.6431,275.9735 292.0321,273.6305 290.8111,272.2445 C289.5891,270.8575 287.7921,270.1655 285.4161,270.1655 C283.1051,270.1655 281.3391,270.8435 280.1201,272.1945 C278.8971,273.5485 278.2881,275.8075 278.2881,278.9755 L278.2881,304.6175 C278.2881,305.3445 278.0231,305.9715 277.4961,306.4985 C276.9671,307.0265 276.3401,307.2905 275.6151,307.2905 L263.1411,307.2905 C262.4141,307.2905 261.7881,307.0265 261.2601,306.4985 C260.7311,305.9715 260.4681,305.3445 260.4681,304.6175 L260.4681,258.4825 C260.4681,257.7575 260.7311,257.1315 261.2601,256.6015 C261.7881,256.0745 262.4141,255.8095 263.1411,255.8095 L275.1201,255.8095 C275.8451,255.8095 276.4721,256.0745 277.0011,256.6015 C277.5281,257.1315 277.7931,257.7575 277.7931,258.4825 L277.7931,260.7605 C279.2441,258.9135 281.0101,257.4605 283.0891,256.4035 C285.1691,255.3485 287.5941,254.8195 290.3661,254.8195 C293.7321,254.8195 296.7841,255.4485 299.5231,256.7015 C302.2611,257.9555 304.4891,259.9025 306.2061,262.5425 C308.1201,260.0345 310.4461,258.1215 313.1851,256.8005 C315.9231,255.4805 318.8781,254.8195 322.0451,254.8195 C324.8821,254.8195 327.5061,255.2655 329.9171,256.1565 C332.3251,257.0475 334.4041,258.4185 336.1541,260.2645 C337.9011,262.1135 339.2541,264.4575 340.2121,267.2945 C341.1691,270.1325 341.6481,273.4985 341.6481,277.3915 L341.6481,304.6175 Z M383.7234,308.2806 C381.8084,308.2806 380.1244,308.0826 378.6734,307.6856 C377.2214,307.2906 375.9664,306.7956 374.9114,306.2016 C373.8554,305.6066 372.9644,304.9636 372.2394,304.2706 C371.5124,303.5776 370.9174,302.9336 370.4564,302.3406 L370.4564,323.4266 C370.4564,324.1526 370.1924,324.7786 369.6644,325.3076 C369.1364,325.8356 368.5094,326.0996 367.7834,326.0996 L355.3104,326.0996 C354.5824,326.0996 353.9564,325.8356 353.4294,325.3076 C352.9004,324.7786 352.6374,324.1526 352.6374,323.4266 L352.6374,258.4826 C352.6374,257.7576 352.9004,257.1316 353.4294,256.6016 C353.9564,256.0746 354.5824,255.8096 355.3104,255.8096 L367.2884,255.8096 C368.0144,255.8096 368.6414,256.0746 369.1694,256.6016 C369.6974,257.1316 369.9614,257.7576 369.9614,258.4826 L369.9614,260.7606 C370.5564,260.1006 371.1994,259.4086 371.8924,258.6806 C372.5854,257.9556 373.4424,257.3116 374.4664,256.7506 C375.4894,256.1906 376.7434,255.7276 378.2284,255.3646 C379.7134,255.0026 381.5444,254.8196 383.7234,254.8196 C386.6934,254.8196 389.4974,255.2656 392.1384,256.1566 C394.7774,257.0476 397.0874,258.4336 399.0684,260.3146 C401.0474,262.1956 402.6474,264.5556 403.8694,267.3926 C405.0894,270.2316 405.7664,273.5976 405.8994,277.4916 C405.9634,278.4806 405.9974,279.8176 405.9974,281.5006 C405.9974,283.1836 405.9634,284.5196 405.8994,285.5096 C405.7664,289.4056 405.0894,292.7706 403.8694,295.6076 C402.6474,298.4466 401.0474,300.8056 399.0684,302.6866 C397.0874,304.5676 394.7774,305.9706 392.1384,306.8936 C389.4974,307.8176 386.6934,308.2806 383.7234,308.2806 Z M388.1784,284.3226 C388.3754,282.4746 388.3754,280.6266 388.1784,278.7776 C387.9804,276.4686 387.2204,274.4566 385.9014,272.7396 C384.5794,271.0236 382.3694,270.1656 379.2684,270.1656 C377.8154,270.1656 376.5614,270.3966 375.5054,270.8576 C374.4494,271.3206 373.5754,271.9316 372.8824,272.6896 C372.1894,273.4496 371.6454,274.2906 371.2484,275.2146 C370.8534,276.1386 370.5884,277.0946 370.4564,278.0856 C370.3244,279.0756 370.2584,280.2306 370.2584,281.5506 C370.2584,282.8716 370.3244,284.0246 370.4564,285.0146 C370.5884,286.0056 370.8534,286.9626 371.2484,287.8856 C371.6454,288.8106 372.1894,289.6526 372.8824,290.4106 C373.5754,291.1706 374.4494,291.7816 375.5054,292.2426 C376.5614,292.7046 377.8154,292.9346 379.2684,292.9346 C382.3694,292.9346 384.5794,292.0786 385.9014,290.3606 C387.2204,288.6456 387.9804,286.6336 388.1784,284.3226 Z M489.4528,278.0853 C489.3198,279.0753 489.2548,280.2313 489.2548,281.5503 C489.2548,282.8713 489.3198,284.0243 489.4528,285.0153 C489.6508,287.3913 490.5418,289.3063 492.1258,290.7573 C493.7098,292.2093 495.8208,292.9353 498.4618,292.9353 C500.6398,292.9353 502.3058,292.6223 503.4618,291.9943 C504.6148,291.3683 505.5558,290.4943 506.2828,289.3713 C506.6118,288.8443 506.9908,288.3813 507.4218,287.9843 C507.8488,287.5893 508.4268,287.3913 509.1538,287.3913 L522.1228,287.3913 C522.8488,287.3913 523.4918,287.6553 524.0538,288.1833 C524.6128,288.7123 524.8608,289.3383 524.7958,290.0643 C524.7288,291.1203 524.3008,292.6723 523.5088,294.7173 C522.7168,296.7643 521.3308,298.7933 519.3498,300.8063 C517.3708,302.8193 514.6978,304.5673 511.3318,306.0533 C507.9658,307.5373 503.6748,308.2803 498.4618,308.2803 C494.7648,308.2803 491.3168,307.7513 488.1158,306.6953 C484.9138,305.6413 482.1098,304.1223 479.7008,302.1423 C477.2908,300.1623 475.3778,297.7713 473.9588,294.9643 C472.5388,292.1603 471.7648,289.0093 471.6328,285.5103 C471.5658,284.5203 471.5338,283.2003 471.5338,281.5503 C471.5338,279.9003 471.5658,278.5803 471.6328,277.5903 C471.7648,274.0933 472.5388,270.9413 473.9588,268.1363 C475.3778,265.3313 477.2908,262.9383 479.7008,260.9583 C482.1098,258.9783 484.9138,257.4603 488.1158,256.4033 C491.3168,255.3493 494.7648,254.8193 498.4618,254.8193 C503.6748,254.8193 507.9658,255.5633 511.3318,257.0473 C514.6978,258.5323 517.3708,260.2823 519.3498,262.2943 C521.3308,264.3093 522.7168,266.3383 523.5088,268.3833 C524.3008,270.4303 524.7288,271.9813 524.7958,273.0363 C524.8608,273.7633 524.6128,274.3903 524.0538,274.9173 C523.4918,275.4463 522.8488,275.7093 522.1228,275.7093 L509.1538,275.7093 C508.4268,275.7093 507.8488,275.5113 507.4218,275.1153 C506.9908,274.7193 506.6118,274.2583 506.2828,273.7293 C505.5558,272.6073 504.6148,271.7333 503.4618,271.1063 C502.3058,270.4793 500.6398,270.1653 498.4618,270.1653 C495.8208,270.1653 493.7098,270.8923 492.1258,272.3433 C490.5418,273.7953 489.6508,275.7093 489.4528,278.0853 Z M556.9694,287.1927 C556.9694,288.7127 557.2994,289.8827 557.9594,290.7077 C558.6174,291.5337 559.7074,291.9447 561.2274,291.9447 L569.1474,291.9447 C569.8714,291.9447 570.4984,292.2097 571.0284,292.7367 C571.5554,293.2657 571.8194,293.8927 571.8194,294.6187 L571.8194,304.6177 C571.8194,305.3437 571.5554,305.9707 571.0284,306.4987 C570.4984,307.0267 569.8714,307.2907 569.1474,307.2907 L559.7404,307.2907 C556.6394,307.2907 553.8174,306.8447 551.2784,305.9537 C548.7354,305.0627 546.5744,303.7757 544.7914,302.0927 C543.0104,300.4097 541.6244,298.3647 540.6344,295.9547 C539.6454,293.5467 539.1504,290.8237 539.1504,287.7877 L539.1504,271.1557 L531.8234,271.1557 C531.0964,271.1557 530.4704,270.8917 529.9434,270.3637 C529.4134,269.8357 529.1514,269.2097 529.1514,268.4817 L529.1514,258.4827 C529.1514,257.7567 529.4134,257.1307 529.9434,256.6017 C530.4704,256.0747 531.0964,255.8097 531.8234,255.8097 L539.1504,255.8097 L539.1504,239.6727 C539.1504,238.9477 539.4124,238.3217 539.9424,237.7927 C540.4694,237.2647 541.0954,237.0007 541.8234,237.0007 L554.2974,237.0007 C555.0224,237.0007 555.6494,237.2647 556.1784,237.7927 C556.7054,238.3217 556.9694,238.9477 556.9694,239.6727 L556.9694,255.8097 L568.1574,255.8097 C568.8814,255.8097 569.5084,256.0747 570.0374,256.6017 C570.5654,257.1307 570.8284,257.7567 570.8284,258.4827 L570.8284,268.4817 C570.8284,269.2097 570.5654,269.8357 570.0374,270.3637 C569.5084,270.8917 568.8814,271.1557 568.1574,271.1557 L556.9694,271.1557 L556.9694,287.1927 Z M463.0982,256.5611 C464.4582,256.5611 465.5472,257.6511 465.5472,259.0111 L465.5472,305.3711 C465.5472,306.0911 465.2882,306.7211 464.7582,307.2511 C464.2282,307.7711 463.6082,308.0411 462.8772,308.0411 L450.8982,308.0411 C450.1672,308.0411 449.5472,307.7711 449.0182,307.2511 C448.4882,306.7211 448.2282,306.0911 448.2282,305.3711 L448.2282,303.0911 C447.6272,303.7511 446.9882,304.4411 446.2972,305.1711 C445.5982,305.8911 444.7482,306.5411 443.7182,307.1011 C442.6982,307.6601 441.4382,308.1211 439.9572,308.4811 C438.4682,308.8511 436.6382,309.0311 434.4572,309.0311 C431.4882,309.0311 428.6882,308.5811 426.0472,307.6911 C423.4082,306.8011 421.0982,305.4211 419.1182,303.5311 C417.1382,301.6511 415.5382,299.2911 414.3182,296.4611 C413.0982,293.6211 412.4172,290.2511 412.2882,286.3611 C412.2182,285.3711 412.1882,284.0311 412.1882,282.3511 C412.1882,280.6711 412.2182,279.3311 412.2882,278.3411 C412.4172,274.4411 413.0982,271.0811 414.3182,268.2401 C415.5382,265.4011 417.1382,263.0411 419.1182,261.1601 C421.0982,259.2811 423.4082,257.8811 426.0472,256.9611 C428.6882,256.0311 431.4882,255.5711 434.4572,255.5711 C436.3772,255.5711 438.0582,255.7711 439.5082,256.1601 C440.9682,256.5611 442.2182,257.0511 443.2782,257.6511 C444.3282,258.2401 445.2182,258.8911 445.9482,259.5811 C446.6782,260.2711 447.2682,260.9211 447.7282,261.5111 L447.7282,259.0111 C447.7282,257.6511 448.8282,256.5611 450.1782,256.5611 L463.0982,256.5611 Z M447.7282,285.7611 C447.8582,284.7711 447.9282,283.6211 447.9282,282.3011 C447.9282,280.9811 447.8582,279.8211 447.7282,278.8311 C447.5982,277.8411 447.3282,276.8911 446.9382,275.9611 C446.5382,275.0411 445.9982,274.2001 445.3082,273.4411 C444.6082,272.6811 443.7382,272.0711 442.6782,271.6111 C441.6272,271.1411 440.3682,270.9101 438.9172,270.9101 C435.8182,270.9101 433.6082,271.7711 432.2882,273.4901 C430.9682,275.2001 430.2072,277.2211 430.0082,279.5311 C429.8082,281.3711 429.8082,283.2211 430.0082,285.0711 C430.2072,287.3811 430.9682,289.3911 432.2882,291.1111 C433.6082,292.8311 435.8182,293.6811 438.9172,293.6811 C440.3682,293.6811 441.6272,293.4501 442.6782,292.9901 C443.7382,292.5311 444.6082,291.9211 445.3082,291.1601 C445.9982,290.4011 446.5382,289.5611 446.9382,288.6311 C447.3282,287.7111 447.5982,286.7511 447.7282,285.7611 Z" id="logo"></path>
        </g>
    </g>
</svg>